<svg xmlns="http://www.w3.org/2000/svg" viewBox="0 0 512 512">
  <!-- Fundo preto cobrindo tudo (iOS aplica o squircle automaticamente) -->
  <rect width="512" height="512" fill="#0A0A0A"/>

  <!-- Grid lines sutis -->
  <line x1="50" y1="370" x2="462" y2="370" stroke="#1A1A1A" stroke-width="2"/>
  <line x1="50" y1="290" x2="462" y2="290" stroke="#1A1A1A" stroke-width="2"/>
  <line x1="50" y1="210" x2="462" y2="210" stroke="#1A1A1A" stroke-width="2"/>
  <line x1="50" y1="130" x2="462" y2="130" stroke="#1A1A1A" stroke-width="2"/>

  <!-- Barras laranja (em queda/menores) -->
  <rect x="55"  y="270" width="72" height="110" fill="#F5A623" rx="6"/>
  <rect x="160" y="200" width="72" height="180" fill="#F5A623" rx="6"/>

  <!-- Barras teal (em alta/maiores) -->
  <rect x="265" y="150" width="72" height="230" fill="#00D4AA" rx="6"/>
  <rect x="370" y="90"  width="72" height="290" fill="#00D4AA" rx="6"/>

  <!-- Linha de tendência -->
  <polyline
    points="91,270 196,200 301,150 406,90"
    stroke="#F5A623"
    stroke-width="9"
    fill="none"
    stroke-linecap="round"
    stroke-linejoin="round"/>

  <!-- Dots na linha -->
  <circle cx="91"  cy="270" r="12" fill="#0A0A0A" stroke="#F5A623" stroke-width="4"/>
  <circle cx="196" cy="200" r="12" fill="#0A0A0A" stroke="#F5A623" stroke-width="4"/>
  <circle cx="301" cy="150" r="12" fill="#0A0A0A" stroke="#00D4AA" stroke-width="4"/>
  <circle cx="406" cy="90"  r="14" fill="#00D4AA"/>

  <!-- Texto RADAR -->
  <text x="256" y="490" font-family="monospace" font-size="58" fill="#F5A623"
        text-anchor="middle" font-weight="bold" letter-spacing="6">RADAR</text>
</svg>
